<svg id="logo" xmlns="http://www.w3.org/2000/svg" width="240" height="74" viewBox="0 0 240 74">
  <path id="Caminho_1824" data-name="Caminho 1824" d="M105.488,22.786c-2.32,0-5.074.492-8.082,3.98V17.005a4.462,4.462,0,1,0-8.923,0V48.838a4.462,4.462,0,1,0,8.923,0V36.483c0-3.552,1.683-5.513,4.748-5.513,3,0,4.583,1.9,4.583,5.513V48.838a4.462,4.462,0,1,0,8.923,0V33.889C115.654,26.939,111.855,22.786,105.488,22.786ZM131.111,23a25.508,25.508,0,0,0-9.338,1.533,3.784,3.784,0,0,0-2.447,3.526,3.7,3.7,0,0,0,3.76,3.712,3.794,3.794,0,0,0,1.294-.23,18.3,18.3,0,0,1,5.545-.792c4.793,0,5.813,2.651,5.826,4.893a20.685,20.685,0,0,0-6.686-1.041c-7.623,0-12,3.494-12,9.6v.109c0,5.513,4.131,9.218,10.275,9.218a11.5,11.5,0,0,0,8.445-3.213,4.115,4.115,0,0,0,4.207,3,4.283,4.283,0,0,0,4.353-4.306V35.831c0-4.146-1.083-7.34-3.231-9.486C138.9,24.128,135.534,23,131.111,23Zm-1.294,24.116c-2.53,0-4.1-1.2-4.1-3.137v-.109c0-2.306,1.925-3.622,5.284-3.622a12.494,12.494,0,0,1,4.856.952v1.22C135.859,45.184,133.374,47.119,129.817,47.119Zm26.489-20.276a10.791,10.791,0,0,1,8.668-4.057c6.712,0,13.5,5.258,13.5,15.313v.109a15.986,15.986,0,0,1-4.1,11.352,12.869,12.869,0,0,1-9.4,3.967,11.2,11.2,0,0,1-8.623-3.718v7.666a4.462,4.462,0,1,1-8.924,0v-30a4.461,4.461,0,0,1,8.879-.632ZM169.557,38.1c0-4.338-2.874-7.615-6.686-7.615-3.837,0-6.629,3.2-6.629,7.615v.109c0,4.414,2.786,7.615,6.629,7.615,3.875,0,6.686-3.2,6.686-7.615ZM198.08,22.787a10.793,10.793,0,0,0-8.669,4.057,4.461,4.461,0,0,0-8.878.632v30a4.462,4.462,0,1,0,8.923,0V49.809a11.2,11.2,0,0,0,8.624,3.718,12.871,12.871,0,0,0,9.4-3.967,15.989,15.989,0,0,0,4.1-11.352V38.1C211.579,28.044,204.791,22.787,198.08,22.787Zm-2.1,7.7c3.812,0,6.686,3.277,6.686,7.615v.109c0,4.414-2.81,7.615-6.686,7.615-3.843,0-6.628-3.2-6.628-7.615V38.1C189.348,33.685,192.139,30.485,195.976,30.485Zm35.509-4.108c.828-2.21,2.307-3.373,4.276-3.373A4.141,4.141,0,0,1,240,27.137a6.573,6.573,0,0,1-.408,2.089L229.528,53.45c-2.53,6.139-5.169,8.317-10.083,8.317a12.687,12.687,0,0,1-4.6-.779,3.92,3.92,0,0,1-2.823-3.743,3.616,3.616,0,0,1,3.594-3.712,4.158,4.158,0,0,1,1.46.236,4.882,4.882,0,0,0,1.606.307,2.317,2.317,0,0,0,2.575-1.514l.2-.486-9.79-22.736a6.44,6.44,0,0,1-.459-2.038A4.261,4.261,0,0,1,215.62,23c2.072,0,3.474,1.086,4.277,3.322l5.9,15.887Z" fill="#29b6d1" fill-rule="evenodd"/>
  <path id="Caminho_1825" data-name="Caminho 1825" d="M63.974,18.779V44.908a18.815,18.815,0,0,1-18.85,18.778H43.217L33.48,73.38a2.123,2.123,0,0,1-2.9.1l-.165-.165-.006-.006-9.654-9.617H18.844A18.814,18.814,0,0,1,0,44.908V18.779A18.815,18.815,0,0,1,18.85,0H45.124A18.815,18.815,0,0,1,63.974,18.779Z" fill="#ffd666"/>
  <path id="Caminho_1826" data-name="Caminho 1826" d="M14.9,36.2a2.288,2.288,0,0,0-1.837,3.628,23.2,23.2,0,0,0,37.857,0A2.288,2.288,0,0,0,49.079,36.2Z" fill="#fff"/>
  <path id="Caminho_1827" data-name="Caminho 1827" d="M25.764,27.23h-11.2V21.6a5.6,5.6,0,1,1,11.2,0Z" fill="#fff"/>
  <path id="Caminho_1828" data-name="Caminho 1828" d="M49.415,27.23h-11.2V21.6a5.6,5.6,0,1,1,11.2,0Z" fill="#fff"/>
</svg>
